<svg xmlns="http://www.w3.org/2000/svg" version="1.1" xmlns:xlink="http://www.w3.org/1999/xlink" xmlns:svgjs="http://svgjs.dev/svgjs" viewBox="0 0 3.7020919897685896 4.017376975659074"><g transform="matrix(0.8571428571428572,0,0,0.8571428571428572,1.8509789617080128,3.122414906699955)"><rect width="4.634392307287172" height="4.634392307287172" x="-2.3171179482712567" y="-3.61654364232574" fill="#ffffff"></rect><g transform="matrix(1,0,0,1,0,0)"><path d=" M -1.0055228875809397 -2.240261822901414 L -0.9079699352487439 -2.1329581140408065 Q -0.880050740136836 -2.102248298373629 -0.8584708751845949 -2.0799631818484294 Q -0.8368910102323537 -2.05767806532323 -0.8203366309639246 -2.0423724801439063 Q -0.8037822516954956 -2.0270668949645825 -0.7916128512879823 -2.0176733806990885 Q -0.7794434508804692 -2.008279866433594 -0.7703780156880795 -2.002663502217838 L -0.769064171212225 -2.0012183344217354 L -0.8557742389783727 -1.9223876658704664 L -0.8570880834542272 -1.9238328336665689 Q -0.8618180152583096 -1.9333907313098884 -0.8700132042265409 -1.9463973178839824 Q -0.8782083931947724 -1.9594039044580764 -0.8920530828455093 -1.9771729480296274 Q -0.9058977724962463 -1.9949419916011784 -0.9258518236778722 -2.018705183161714 Q -0.9458058748594981 -2.0424683747222496 -0.973725069971406 -2.0731781903894273 L -1.0647087999243292 -2.1732560602695226 L -1.4259106614686614 -2.246099445100358 Q -1.444402670984123 -2.249744889783989 -1.4610717289302533 -2.2517481052819734 Q -1.4777407868763839 -2.2537513207799575 -1.4913716176766867 -2.2542272914066848 Q -1.5050024484769897 -2.254703262033412 -1.5150531142079267 -2.254144679467327 Q -1.5251037799388636 -2.253586096901242 -1.5303261741938758 -2.252797698524723 L -1.5316400186697303 -2.2542428663208254 L -1.422168558114969 -2.3537665853668033 Q -1.4146139523788055 -2.3454568705392136 -1.390324550627216 -2.3328940350351597 Q -1.3660351488756262 -2.3203311995311053 -1.3242885200289027 -2.3114309882174315 L -1.0583057183338347 -2.256946150124998 L -1.0963792674905506 -2.531828093405334 Q -1.0984488323312056 -2.546444231153356 -1.1008468582908244 -2.561421660850404 Q -1.1032448842504432 -2.5763990905474516 -1.1060698638192115 -2.589668552989557 Q -1.1088948433879797 -2.602938015431662 -1.1123930842005345 -2.6129557739233653 Q -1.115891325013089 -2.6229735324150685 -1.1204897806785798 -2.628031619701427 L -1.0500378506185848 -2.6920815378993335 L -1.0487240061427303 -2.690636370103231 Q -1.050431667760985 -2.6765456784545445 -1.051482177913797 -2.65084416896443 Q -1.0525326880666088 -2.6251426594743155 -1.0477036524989658 -2.5886187305192916 L -1.0055228875809397 -2.240261822901414 M -0.6640525868434445 -2.384228996407797 Q -0.6790808452042338 -2.437318715630912 -0.6721822498453429 -2.4882421205528926 Q -0.6652836544864519 -2.539165525474873 -0.6401943799795233 -2.5822978002922112 Q -0.6151051054725947 -2.625430075109549 -0.5734427905356039 -2.657522239755598 Q -0.5317804755986131 -2.689614404401647 -0.4777511153273011 -2.704908649636079 Q -0.4246613961041858 -2.719936907996868 -0.37292700007560553 -2.715551485306883 Q -0.3211926040470252 -2.7111660626168983 -0.2772493381230873 -2.688589960778876 Q -0.23330607219914928 -2.666013858940853 -0.20017234967967545 -2.625153848120014 Q -0.16703862716020162 -2.584293837299174 -0.15068043443120088 -2.5265059128350753 Q -0.13698211043862302 -2.4781143988529437 -0.14126127280815554 -2.428693685338038 Q -0.14554043517768794 -2.3792729718231316 -0.16871935097663 -2.3356665329864708 Q -0.1918982667755721 -2.2920600941498104 -0.2337998354698364 -2.258124067514185 Q -0.2757014041641007 -2.22418804087856 -0.33771771334508494 -2.206632907218169 Q -0.3903376120441019 -2.1917376422942008 -0.44177060109222244 -2.1959546514405472 Q -0.49320359014034293 -2.2001716605868933 -0.5371468560642809 -2.222747762424916 Q -0.581090121988219 -2.2453238642629385 -0.6143922580513314 -2.2858824681033183 Q -0.6476943941144437 -2.326441071943698 -0.6640525868434445 -2.384228996407797 M -0.3366203621787661 -2.243988654524236 Q -0.30326310496778214 -2.253431188538537 -0.2790326000149215 -2.2744992727041495 Q -0.2548020950620607 -2.295567356869762 -0.24164846467735168 -2.3261865624302844 Q -0.22849483429264256 -2.356805767990807 -0.22732664291268878 -2.3957039703059904 Q -0.22615845153273495 -2.4346021726211737 -0.2389258214675648 -2.4797049429346165 Q -0.25328911264424836 -2.53044555953724 -0.27639687760446663 -2.5708451089694524 Q -0.2995046425646849 -2.611244658401665 -0.3298585333965877 -2.6369063424029426 Q -0.3602124242284906 -2.6625680264042204 -0.3976837909904813 -2.6712446591792993 Q -0.43515515775247193 -2.6799212919543782 -0.4783786459695216 -2.667685895766833 Q -0.5117359031805055 -2.6582433617525316 -0.5357979945897277 -2.637476684567379 Q -0.5598600859989498 -2.6167100073822267 -0.5733816200825291 -2.5864941256273917 Q -0.5869031541661085 -2.556278243872557 -0.588137842264473 -2.517614951819423 Q -0.5893725303628373 -2.478951659766289 -0.5766051604280075 -2.433848889452846 Q -0.5622418692513239 -2.3831082728502224 -0.5388326973106459 -2.342540309874371 Q -0.5154235253699679 -2.3019723468985203 -0.4847017308391947 -2.275907339091555 Q -0.45397993630842154 -2.249842331284589 -0.4166769830900694 -2.240864291529051 Q -0.37937402987171737 -2.231886251773512 -0.3366203621787661 -2.243988654524236 M 0.05102071381175467 -2.5712206293731694 Q 0.05350745051232053 -2.6126499713253515 0.05414667904885556 -2.643673266098469 Q 0.05478590758539058 -2.6746965608715865 0.05442575689590108 -2.697219540968673 Q 0.05406560620641157 -2.71974252106576 0.0522918115826532 -2.7350129522701216 Q 0.05051801695889485 -2.7502833834744838 0.048207963064762965 -2.7606944023121214 L 0.048324985968318995 -2.762644018403989 L 0.16091531527366135 -2.7558859457236276 L 0.1607982923701053 -2.75393632963176 Q 0.157259497988635 -2.7438763795047905 0.1539155503712414 -2.728913133422263 Q 0.15057160275384787 -2.713949887339736 0.14727622327108597 -2.6916463251868166 Q 0.14398084378832413 -2.6693427630338977 0.1411482971484383 -2.638451119027281 Q 0.13831575050855244 -2.607559475020664 0.13582901380798656 -2.5661301330684814 L 0.1203527348127002 -2.308293404919018 Q 0.11640321181768384 -2.242493861818493 0.09912847627714971 -2.195103907458501 Q 0.08185374073661564 -2.1477139530985085 0.054528998386258104 -2.1121779172363118 Q 0.02720425603590057 -2.0766418813741154 -0.008440294976580623 -2.049187210933907 Q -0.04408484598906181 -2.0217325404936988 -0.08474474420208339 -1.9962909692557091 L -0.09330328321711728 -2.008544524598805 Q -0.057829294901397 -2.0372323329593747 -0.03439412853040291 -2.069088554582004 Q -0.010958962159408822 -2.100944776204633 0.003493457171160709 -2.137987194837339 Q 0.017945876501730254 -2.1750296134700444 0.025194602186981732 -2.218374344129632 Q 0.032443327872233224 -2.2617190747892195 0.035544434816468296 -2.313383901223706 L 0.05102071381175467 -2.5712206293731694 M 0.06108870309642386 -2.9100933915558325 Q 0.0617323290659821 -2.920816280061103 0.06644574991603602 -2.9300719848389 Q 0.07115917076608994 -2.939327689616697 0.0784070351130165 -2.94598546778727 Q 0.08565489945994303 -2.9526432459578436 0.0954079515778532 -2.9562156934982258 Q 0.10516100369576337 -2.9597881410386084 0.11637129622400089 -2.9591152593431613 Q 0.12758158875223846 -2.958442377647714 0.13683729353003543 -2.95372895679766 Q 0.14609299830783243 -2.9490155359476065 0.15273614861546111 -2.941523969589196 Q 0.1593792989230898 -2.9340324032307863 0.16295174646347232 -2.924279351112876 Q 0.16652419400385482 -2.914526298994966 0.1658805680342966 -2.903803410489695 Q 0.16453480464340214 -2.88138282543322 0.14851835242887051 -2.8671802282238072 Q 0.13250190021433883 -2.852977631014394 0.11008131515786373 -2.8543233944052884 Q 0.09887102262962616 -2.854996276100736 0.08961531785182919 -2.8597096969507896 Q 0.0803596130740322 -2.8644231178008437 0.07396016477788694 -2.871900056296309 Q 0.0675607164817417 -2.8793769947917744 0.06398826894135917 -2.889130046909685 Q 0.060415821400976635 -2.8988830990275947 0.06108870309642386 -2.9100933915558325 M 0.28440653641848535 -2.3950978601395425 Q 0.29806961036264384 -2.4311712681095323 0.32294105400550277 -2.4520346574649023 Q 0.3478124976483617 -2.472898046820273 0.3795612326115254 -2.4822803725643867 Q 0.4113099675746892 -2.491662698308501 0.447227354100073 -2.49137307553746 Q 0.48314474062545687 -2.4910834527664196 0.5194428009035521 -2.4849061988891683 Q 0.5557408611816474 -2.4787289450119165 0.589569117897244 -2.4687879629847713 Q 0.6233973746128405 -2.458846980957626 0.6509678499564295 -2.448926588189531 L 0.6597883154140508 -2.4722144844739544 Q 0.6712030354180313 -2.502351762018503 0.671742017871573 -2.527209937203442 Q 0.6722810003251145 -2.5520681123883815 0.663573546934878 -2.571813272430452 Q 0.6548660935446415 -2.5915584324725227 0.6376836175881846 -2.60615946462576 Q 0.6205011416317278 -2.620760496778997 0.5967566199299625 -2.6297539125397087 Q 0.5803181049056634 -2.635980123450971 0.5632985134801624 -2.6392936315550926 Q 0.5462789220546612 -2.6426071396592143 0.5267341646610811 -2.642700020182329 Q 0.507189407267501 -2.6427929007054445 0.4840886451736482 -2.6390113282675056 Q 0.4609878830797954 -2.6352297558295668 0.4326707018330439 -2.6266362299362753 L 0.4291421494781712 -2.6311054854712315 L 0.48457867059317933 -2.683729048706241 Q 0.5022415639118127 -2.6848710699643754 0.518496605146106 -2.683674601730221 Q 0.5347516463803993 -2.6824781334960672 0.5508579869712171 -2.679510525998127 Q 0.566964327562035 -2.6765429185001866 0.583150280218048 -2.671717696586914 Q 0.5993362328740612 -2.666892474673642 0.6166879987330436 -2.660320363156199 Q 0.6646336675539158 -2.642160581331684 0.6942420284170574 -2.6176318356092216 Q 0.7238503892801988 -2.593103089886759 0.7378438081163945 -2.564568119418252 Q 0.7518372269525901 -2.5360331489497447 0.7515924431002147 -2.5050590299499236 Q 0.7513476592478392 -2.4740849109501024 0.7395870386376775 -2.443034382570871 L 0.6832052398301374 -2.2941744965174964 Q 0.6685044640674351 -2.255361336043457 0.6586636833645352 -2.2259332462845363 Q 0.6488229026616353 -2.1965051565256153 0.6424653776801629 -2.1748950612670828 Q 0.6361078526986903 -2.1532849660085502 0.6332578330982603 -2.138178351403961 Q 0.6304078134978304 -2.1230717367993717 0.6295156096369773 -2.1124449012166537 L 0.6288238084246148 -2.110618399547287 L 0.5279095911921123 -2.1488404165303128 L 0.5286013924044748 -2.150666918199679 Q 0.5336517243406327 -2.1571081733616926 0.5382522939457992 -2.1658083059507987 Q 0.5428528635509655 -2.174508438539905 0.548608722872186 -2.1869480496192897 Q 0.5359064836523806 -2.182360748472043 0.5196066034994221 -2.1786139491806344 Q 0.5033067233464636 -2.174867149889226 0.48395916591558924 -2.1741021419832376 Q 0.4646116084847149 -2.17333713407725 0.4426487495336511 -2.1766954811000363 Q 0.4206858905825872 -2.1800538281228232 0.3964847434634803 -2.1892201941866256 Q 0.3170319208460348 -2.2193135469243925 0.28774795590046404 -2.2729587972313445 Q 0.25846399095489325 -2.3266040475382965 0.28440653641848535 -2.3950978601395425 M 0.6374777263153616 -2.413309805636883 Q 0.5957518630341817 -2.428591657800787 0.555752300098123 -2.4387815417956533 Q 0.5157527371620645 -2.448971425790519 0.4811118886508102 -2.4464279578196146 Q 0.44647104013955596 -2.4438844898487098 0.4192922197503738 -2.4252003658552375 Q 0.39211339936119155 -2.406516241861765 0.3762019714768551 -2.364506703466334 Q 0.3557938357121626 -2.310624904220021 0.3720118165437013 -2.272110060462493 Q 0.38822979737524005 -2.233595216704965 0.43571884077877066 -2.215608385183541 Q 0.4576368608111694 -2.2073067706351917 0.47800839388788746 -2.2066396767972245 Q 0.49837992696460554 -2.2059725829592574 0.5158524834068832 -2.210058419770497 Q 0.5333250398491608 -2.2141442565817373 0.5471514560390554 -2.2216996229417045 Q 0.5609778722289498 -2.2292549893016718 0.5699786087907919 -2.237854920566533 Q 0.5774639711429186 -2.254860785819334 0.585506160236632 -2.27609386772572 Q 0.5935483493303456 -2.2973269496321063 0.6037524172126918 -2.3242678492552633 L 0.6374777263153616 -2.413309805636883 M 1.1140336911100301 -2.4212511535372623 Q 1.1427494075991746 -2.451217499002198 1.1633203738744493 -2.4744487016874483 Q 1.183891340149724 -2.4976799043726983 1.1981977019070578 -2.5150793973032752 Q 1.2125040636643916 -2.532478890233852 1.2210378555597603 -2.5452658684703615 Q 1.229571647455129 -2.558052846706871 1.2345508471431574 -2.5674832885150884 L 1.2359021749779406 -2.5688934694781445 L 1.3173401255944124 -2.4908542870194106 L 1.3159887977596292 -2.4894441060563546 Q 1.3067790551824334 -2.484067647752487 1.2945435382590431 -2.4748279050822832 Q 1.2823080213356532 -2.46558816241208 1.2653575702725897 -2.4507224091717217 Q 1.248407119209526 -2.4358566559313637 1.2262496993508138 -2.4141456970602446 Q 1.2040922794921016 -2.3924347381891256 1.175376563002957 -2.36246839272419 L 1.0071362475724395 -2.1869008628237445 L 1.2214033052001247 -2.179725567874048 Q 1.2770595928080106 -2.177112912483504 1.2939511907428016 -2.1947401745217014 L 1.3757416866000374 -2.1163631601042714 L 1.374390358765254 -2.114952979141216 Q 1.3625215268358248 -2.1209162481411954 1.3500138141941744 -2.1244484836609976 Q 1.3375061015525238 -2.1279807191808002 1.323478145096742 -2.129926501117165 Q 1.3094501886409606 -2.1318722830535295 1.2931968978895199 -2.1329072753238476 Q 1.276943607138079 -2.133942267594166 1.2572457870303735 -2.1345585048544145 L 1.0637488985147536 -2.139413689468315 L 1.0450019049213464 -1.8361462527097214 Q 1.0439154161637896 -1.82230928215639 1.0437176471491765 -1.8072825431065889 Q 1.0435198781345636 -1.792255804056788 1.0445045209753858 -1.7784629733496606 Q 1.045489163816208 -1.7646701426425335 1.0478104212097457 -1.752977870097922 Q 1.0501316786032833 -1.7412855975533104 1.054773619861487 -1.7341322732924256 L 1.0534222920267036 -1.7327220923293698 L 0.951184172205159 -1.830693360351157 Q 0.9599678031312504 -1.8398595366110198 0.96466773722442 -1.854291534794804 Q 0.9693676713175896 -1.8687235329785878 0.9715553621147717 -1.8957070968857912 L 0.989231153761561 -2.168215965063255 L 0.9345023764528384 -2.1111036360594957 Q 0.9057866599636939 -2.0811372905945604 0.8850394210680372 -2.058075003888658 Q 0.8642921821723807 -2.035012717182756 0.8501620930354289 -2.017444308272831 Q 0.836032003898477 -1.9998758993629062 0.8273219393827264 -1.9872578371057446 Q 0.8186118748669757 -1.974639774848583 0.8136326751789472 -1.9652093330403655 L 0.8122813473441639 -1.9637991520773097 L 0.7308433967276922 -2.0418383345360436 L 0.7321947245624755 -2.0432485154990996 Q 0.7414044671396713 -2.0486249738029674 0.7538162566834434 -2.0576958004938226 Q 0.7662280462272155 -2.0667666271846783 0.783002224669897 -2.081801296404384 Q 0.7997764031125785 -2.0968359656240905 0.8221100955916727 -2.1183780085158617 Q 0.8444437880707671 -2.139920051407633 0.8731595045599116 -2.169886396872568 L 1.1140336911100301 -2.4212511535372623" fill="#000000" fill-rule="nonzero"></path></g><g transform="matrix(1,0,0,1,0,0)"><path d=" M -1.45454345703125 0.15166666666666667 L -1.2799601236979168 0.15166666666666667 L -1.2799601236979168 0.2966666666666667 L -1.24204345703125 0.2966666666666667 L -1.24204345703125 0.0050000000000000044 L -1.2799601236979168 0.0050000000000000044 L -1.2799601236979168 0.1325 L -1.45454345703125 0.1325 L -1.45454345703125 0.0050000000000000044 L -1.4924601236979167 0.0050000000000000044 L -1.4924601236979167 0.2966666666666667 L -1.45454345703125 0.2966666666666667 L -1.45454345703125 0.15166666666666667 M -0.9737086995442709 0.2016666666666667 L -0.9737086995442709 0.19291666666666668 Q -0.9737086995442709 0.165 -0.9816253662109375 0.14458333333333334 Q -0.9895420328776042 0.12416666666666668 -1.003083699544271 0.11083333333333334 Q -1.0166253662109375 0.0975 -1.0345420328776043 0.09083333333333335 Q -1.0524586995442708 0.08416666666666667 -1.0724586995442709 0.08416666666666667 Q -1.0937086995442709 0.08416666666666667 -1.1116253662109377 0.09145833333333334 Q -1.1295420328776042 0.09875 -1.1428753662109377 0.11270833333333335 Q -1.1562086995442709 0.12666666666666668 -1.163708699544271 0.14645833333333336 Q -1.171208699544271 0.16625 -1.171208699544271 0.19125000000000003 Q -1.171208699544271 0.21208333333333335 -1.1647503662109375 0.23187500000000003 Q -1.1582920328776043 0.2516666666666667 -1.1451670328776042 0.2672916666666667 Q -1.1320420328776042 0.2829166666666667 -1.1118336995442708 0.29229166666666667 Q -1.0916253662109376 0.3016666666666667 -1.0641253662109376 0.3016666666666667 Q -1.037458699544271 0.3016666666666667 -1.014958699544271 0.29229166666666667 Q -0.9924586995442709 0.2829166666666667 -0.9757920328776042 0.2654166666666667 L -0.9891253662109376 0.2520833333333333 Q -0.9978753662109375 0.25958333333333333 -1.0055836995442708 0.26583333333333337 Q -1.0132920328776043 0.27208333333333334 -1.0212086995442708 0.27625 Q -1.0291253662109376 0.2804166666666667 -1.0376670328776043 0.28270833333333334 Q -1.046208699544271 0.28500000000000003 -1.0566253662109375 0.28500000000000003 Q -1.0682920328776042 0.28500000000000003 -1.0814170328776043 0.28145833333333337 Q -1.0945420328776043 0.2779166666666667 -1.1057920328776043 0.26875000000000004 Q -1.1170420328776043 0.25958333333333333 -1.1245420328776041 0.24333333333333335 Q -1.1320420328776042 0.22708333333333336 -1.1320420328776042 0.2016666666666667 L -0.9737086995442709 0.2016666666666667 M -1.1320420328776042 0.185 Q -1.1320420328776042 0.16833333333333333 -1.1285003662109376 0.15270833333333333 Q -1.1249586995442709 0.13708333333333333 -1.1176670328776042 0.125 Q -1.1103753662109375 0.11291666666666667 -1.0991253662109375 0.10562500000000002 Q -1.0878753662109375 0.09833333333333336 -1.0724586995442709 0.09833333333333336 Q -1.0428753662109376 0.09833333333333336 -1.026417032877604 0.12145833333333333 Q -1.0099586995442709 0.14458333333333334 -1.0099586995442709 0.185 L -1.1320420328776042 0.185 M -0.8758026123046876 0.0050000000000000044 L -0.9112192789713542 0.0050000000000000044 L -0.9112192789713542 0.2966666666666667 L -0.8758026123046876 0.2966666666666667 L -0.8758026123046876 0.0050000000000000044 M -0.8008138020833334 0.4008333333333334 L -0.7653971354166668 0.4008333333333334 L -0.7653971354166668 0.2625 L -0.7637304687500001 0.2625 Q -0.7595638020833334 0.2733333333333334 -0.7526888020833334 0.2808333333333334 Q -0.7458138020833334 0.28833333333333333 -0.7370638020833334 0.2929166666666667 Q -0.7283138020833334 0.29750000000000004 -0.7185221354166668 0.29958333333333337 Q -0.70873046875 0.3016666666666667 -0.69873046875 0.3016666666666667 Q -0.6778971354166667 0.3016666666666667 -0.6603971354166667 0.2939583333333334 Q -0.6428971354166667 0.28625 -0.6301888020833334 0.27208333333333334 Q -0.6174804687500001 0.2579166666666667 -0.6103971354166667 0.23770833333333335 Q -0.6033138020833334 0.21750000000000003 -0.6033138020833334 0.19291666666666668 Q -0.6033138020833334 0.1679166666666667 -0.6103971354166667 0.14791666666666667 Q -0.6174804687500001 0.12791666666666668 -0.6301888020833334 0.11354166666666668 Q -0.6428971354166667 0.09916666666666668 -0.6603971354166667 0.09145833333333334 Q -0.6778971354166667 0.08375000000000002 -0.69873046875 0.08375000000000002 Q -0.7483138020833334 0.08375000000000002 -0.7637304687500001 0.12208333333333335 L -0.7653971354166668 0.12208333333333335 L -0.7653971354166668 0.08833333333333335 L -0.8008138020833334 0.08833333333333335 L -0.8008138020833334 0.4008333333333334 M -0.7653971354166668 0.1716666666666667 Q -0.7653971354166668 0.15791666666666668 -0.7610221354166667 0.145625 Q -0.7566471354166667 0.13333333333333336 -0.74873046875 0.12437500000000001 Q -0.7408138020833334 0.11541666666666667 -0.7301888020833334 0.11020833333333335 Q -0.7195638020833334 0.10500000000000001 -0.70748046875 0.10500000000000001 Q -0.6945638020833333 0.10500000000000001 -0.6826888020833334 0.10979166666666668 Q -0.6708138020833334 0.11458333333333334 -0.6620638020833334 0.125 Q -0.6533138020833333 0.13541666666666669 -0.6481054687500001 0.15208333333333335 Q -0.6428971354166667 0.16875 -0.6428971354166667 0.19208333333333336 Q -0.6428971354166667 0.21583333333333335 -0.6481054687500001 0.2325 Q -0.6533138020833333 0.2491666666666667 -0.6622721354166667 0.2597916666666667 Q -0.67123046875 0.2704166666666667 -0.6828971354166667 0.27520833333333333 Q -0.6945638020833333 0.28 -0.70748046875 0.28 Q -0.7191471354166667 0.28 -0.7295638020833334 0.27520833333333333 Q -0.73998046875 0.2704166666666667 -0.7478971354166667 0.26104166666666667 Q -0.7558138020833334 0.2516666666666667 -0.7606054687500001 0.23833333333333334 Q -0.7653971354166668 0.22500000000000003 -0.7653971354166668 0.2079166666666667 L -0.7653971354166668 0.1716666666666667 M -0.5358121744791667 0.08833333333333335 L -0.5358121744791667 0.2966666666666667 L -0.5003955078125 0.2966666666666667 L -0.5003955078125 0.08833333333333335 L -0.5358121744791667 0.08833333333333335 M -0.5408121744791667 0.02250000000000002 Q -0.5408121744791667 0.031666666666666676 -0.5341455078125 0.03833333333333333 Q -0.5274788411458333 0.044999999999999984 -0.5183121744791667 0.044999999999999984 Q -0.5091455078125 0.044999999999999984 -0.5024788411458334 0.03833333333333333 Q -0.4958121744791667 0.031666666666666676 -0.4958121744791667 0.02250000000000002 Q -0.4958121744791667 0.013333333333333364 -0.5024788411458334 0.006666666666666654 Q -0.5091455078125 0 -0.5183121744791667 0 Q -0.5274788411458333 0 -0.5341455078125 0.006666666666666654 Q -0.5408121744791667 0.013333333333333364 -0.5408121744791667 0.02250000000000002 M -0.24665242513020835 0.2966666666666667 L -0.24665242513020835 0.16166666666666668 Q -0.24665242513020835 0.15416666666666667 -0.24790242513020835 0.14104166666666668 Q -0.24915242513020835 0.12791666666666668 -0.2560274251302084 0.11520833333333336 Q -0.26290242513020834 0.10250000000000001 -0.27790242513020835 0.09312500000000001 Q -0.29290242513020837 0.08375000000000002 -0.32040242513020833 0.08375000000000002 Q -0.33248575846354167 0.08333333333333334 -0.3474857584635417 0.08854166666666669 Q -0.3624857584635417 0.09375 -0.37706909179687503 0.10833333333333334 L -0.3837357584635417 0.11500000000000002 L -0.3854024251302084 0.11500000000000002 L -0.3854024251302084 0.08833333333333335 L -0.42081909179687504 0.08833333333333335 L -0.42081909179687504 0.2966666666666667 L -0.3854024251302084 0.2966666666666667 L -0.3854024251302084 0.1679166666666667 Q -0.3854024251302084 0.15166666666666667 -0.380819091796875 0.14 Q -0.3762357584635417 0.12833333333333335 -0.36831909179687505 0.12041666666666667 Q -0.36040242513020837 0.11250000000000002 -0.35019409179687505 0.10875000000000001 Q -0.3399857584635417 0.10500000000000001 -0.32915242513020837 0.10500000000000001 Q -0.31165242513020835 0.10500000000000001 -0.302069091796875 0.111875 Q -0.2924857584635417 0.11875000000000002 -0.2881107584635417 0.12791666666666668 Q -0.2837357584635417 0.13708333333333333 -0.28290242513020836 0.14625000000000002 Q -0.282069091796875 0.15541666666666668 -0.282069091796875 0.15958333333333335 L -0.282069091796875 0.2966666666666667 L -0.24665242513020835 0.2966666666666667 M -0.029988403320312523 0.3141666666666667 Q -0.029988403320312523 0.33333333333333337 -0.03457173665364585 0.3466666666666667 Q -0.03915506998697918 0.36000000000000004 -0.0472800699869792 0.36833333333333335 Q -0.055405069986979194 0.3766666666666667 -0.06644673665364587 0.3804166666666667 Q -0.07748840332031254 0.3841666666666667 -0.08998840332031253 0.3841666666666667 Q -0.11207173665364586 0.3841666666666667 -0.1256134033203125 0.3729166666666667 Q -0.13915506998697919 0.3616666666666667 -0.1504050699869792 0.3429166666666667 L -0.17332173665364586 0.36375 Q -0.17040506998697919 0.36750000000000005 -0.1641550699869792 0.37354166666666666 Q -0.1579050699869792 0.3795833333333334 -0.14832173665364587 0.385625 Q -0.13873840332031254 0.3916666666666667 -0.1254050699869792 0.3960416666666667 Q -0.11207173665364586 0.4004166666666667 -0.09498840332031253 0.4004166666666667 Q -0.06332173665364585 0.4004166666666667 -0.043738403320312536 0.39145833333333335 Q -0.024155069986979194 0.38250000000000006 -0.01332173665364586 0.36750000000000005 Q -0.0024884033203125266 0.35250000000000004 0.0014699300130208148 0.333125 Q 0.005428263346354156 0.31375000000000003 0.005428263346354156 0.2929166666666667 L 0.005428263346354156 0.08833333333333335 L -0.029988403320312523 0.08833333333333335 L -0.029988403320312523 0.12083333333333335 L -0.0316550699869792 0.12083333333333335 Q -0.036655069986979205 0.10333333333333333 -0.05311340332031253 0.09354166666666669 Q -0.06957173665364585 0.08375000000000002 -0.09623840332031253 0.08375000000000002 Q -0.11748840332031253 0.08375000000000002 -0.13498840332031253 0.09145833333333334 Q -0.15248840332031255 0.09916666666666668 -0.16498840332031253 0.11333333333333334 Q -0.17748840332031254 0.1275 -0.18436340332031254 0.14750000000000002 Q -0.19123840332031253 0.1675 -0.19123840332031253 0.19208333333333336 Q -0.19123840332031253 0.21708333333333335 -0.18436340332031254 0.23729166666666668 Q -0.17748840332031254 0.2575 -0.16498840332031253 0.27187500000000003 Q -0.15248840332031255 0.28625 -0.13519673665364587 0.2939583333333334 Q -0.1179050699869792 0.3016666666666667 -0.0966550699869792 0.3016666666666667 Q -0.07332173665364586 0.3016666666666667 -0.05603006998697918 0.29250000000000004 Q -0.03873840332031253 0.2833333333333334 -0.0316550699869792 0.26333333333333336 L -0.029988403320312523 0.26333333333333336 L -0.029988403320312523 0.3141666666666667 M -0.029988403320312523 0.2079166666666667 Q -0.029988403320312523 0.22541666666666668 -0.03478006998697919 0.23875000000000002 Q -0.039571736653645856 0.2520833333333333 -0.04748840332031254 0.26125000000000004 Q -0.055405069986979194 0.2704166666666667 -0.06582173665364585 0.27520833333333333 Q -0.07623840332031254 0.28 -0.08748840332031253 0.28 Q -0.09748840332031253 0.28 -0.10894673665364586 0.27645833333333336 Q -0.1204050699869792 0.2729166666666667 -0.13019673665364587 0.26333333333333336 Q -0.13998840332031254 0.25375000000000003 -0.14644673665364588 0.23625000000000002 Q -0.1529050699869792 0.21875 -0.1529050699869792 0.19125000000000003 Q -0.1529050699869792 0.16208333333333336 -0.14498840332031254 0.14479166666666668 Q -0.13707173665364586 0.1275 -0.12644673665364586 0.11833333333333335 Q -0.11582173665364587 0.10916666666666669 -0.1047800699869792 0.10645833333333335 Q -0.09373840332031252 0.10375000000000001 -0.08748840332031253 0.10375000000000001 Q -0.07373840332031253 0.10375000000000001 -0.0629050699869792 0.10979166666666668 Q -0.05207173665364587 0.11583333333333334 -0.0447800699869792 0.1260416666666667 Q -0.03748840332031253 0.13625 -0.03373840332031253 0.14958333333333335 Q -0.029988403320312523 0.16291666666666668 -0.029988403320312523 0.17708333333333334 L -0.029988403320312523 0.2079166666666667 M 0.217913818359375 0.4008333333333334 L 0.2533304850260417 0.4008333333333334 L 0.2533304850260417 0.2625 L 0.25499715169270837 0.2625 Q 0.259163818359375 0.2733333333333334 0.26603881835937504 0.2808333333333334 Q 0.272913818359375 0.28833333333333333 0.28166381835937504 0.2929166666666667 Q 0.290413818359375 0.29750000000000004 0.3002054850260417 0.29958333333333337 Q 0.30999715169270836 0.3016666666666667 0.31999715169270837 0.3016666666666667 Q 0.3408304850260417 0.3016666666666667 0.3583304850260417 0.2939583333333334 Q 0.37583048502604166 0.28625 0.38853881835937504 0.27208333333333334 Q 0.40124715169270836 0.2579166666666667 0.4083304850260417 0.23770833333333335 Q 0.415413818359375 0.21750000000000003 0.415413818359375 0.19291666666666668 Q 0.415413818359375 0.1679166666666667 0.4083304850260417 0.14791666666666667 Q 0.40124715169270836 0.12791666666666668 0.38853881835937504 0.11354166666666668 Q 0.37583048502604166 0.09916666666666668 0.3583304850260417 0.09145833333333334 Q 0.3408304850260417 0.08375000000000002 0.31999715169270837 0.08375000000000002 Q 0.27041381835937506 0.08375000000000002 0.25499715169270837 0.12208333333333335 L 0.2533304850260417 0.12208333333333335 L 0.2533304850260417 0.08833333333333335 L 0.217913818359375 0.08833333333333335 L 0.217913818359375 0.4008333333333334 M 0.2533304850260417 0.1716666666666667 Q 0.2533304850260417 0.15791666666666668 0.2577054850260417 0.145625 Q 0.2620804850260417 0.13333333333333336 0.2699971516927083 0.12437500000000001 Q 0.277913818359375 0.11541666666666667 0.288538818359375 0.11020833333333335 Q 0.299163818359375 0.10500000000000001 0.31124715169270833 0.10500000000000001 Q 0.324163818359375 0.10500000000000001 0.336038818359375 0.10979166666666668 Q 0.347913818359375 0.11458333333333334 0.356663818359375 0.125 Q 0.36541381835937503 0.13541666666666669 0.3706221516927084 0.15208333333333335 Q 0.37583048502604166 0.16875 0.37583048502604166 0.19208333333333336 Q 0.37583048502604166 0.21583333333333335 0.3706221516927084 0.2325 Q 0.36541381835937503 0.2491666666666667 0.3564554850260417 0.2597916666666667 Q 0.34749715169270834 0.2704166666666667 0.33583048502604174 0.27520833333333333 Q 0.324163818359375 0.28 0.31124715169270833 0.28 Q 0.2995804850260417 0.28 0.289163818359375 0.27520833333333333 Q 0.27874715169270836 0.2704166666666667 0.2708304850260417 0.26104166666666667 Q 0.262913818359375 0.2516666666666667 0.25812215169270836 0.23833333333333334 Q 0.2533304850260417 0.22500000000000003 0.2533304850260417 0.2079166666666667 L 0.2533304850260417 0.1716666666666667 M 0.6545821126302084 0.2016666666666667 L 0.6545821126302084 0.19291666666666668 Q 0.6545821126302084 0.165 0.6466654459635417 0.14458333333333334 Q 0.6387487792968751 0.12416666666666668 0.6252071126302083 0.11083333333333334 Q 0.6116654459635418 0.0975 0.5937487792968751 0.09083333333333335 Q 0.5758321126302084 0.08416666666666667 0.5558321126302084 0.08416666666666667 Q 0.5345821126302084 0.08416666666666667 0.5166654459635417 0.09145833333333334 Q 0.49874877929687506 0.09875 0.48541544596354175 0.11270833333333335 Q 0.4720821126302084 0.12666666666666668 0.4645821126302084 0.14645833333333336 Q 0.45708211263020837 0.16625 0.45708211263020837 0.19125000000000003 Q 0.45708211263020837 0.21208333333333335 0.4635404459635417 0.23187500000000003 Q 0.46999877929687506 0.2516666666666667 0.48312377929687506 0.2672916666666667 Q 0.49624877929687505 0.2829166666666667 0.5164571126302084 0.29229166666666667 Q 0.5366654459635417 0.3016666666666667 0.5641654459635417 0.3016666666666667 Q 0.5908321126302084 0.3016666666666667 0.6133321126302084 0.29229166666666667 Q 0.6358321126302084 0.2829166666666667 0.652498779296875 0.2654166666666667 L 0.6391654459635417 0.2520833333333333 Q 0.6304154459635417 0.25958333333333333 0.6227071126302084 0.26583333333333337 Q 0.6149987792968751 0.27208333333333334 0.6070821126302084 0.27625 Q 0.5991654459635417 0.2804166666666667 0.590623779296875 0.28270833333333334 Q 0.5820821126302084 0.28500000000000003 0.5716654459635417 0.28500000000000003 Q 0.559998779296875 0.28500000000000003 0.5468737792968751 0.28145833333333337 Q 0.533748779296875 0.2779166666666667 0.522498779296875 0.26875000000000004 Q 0.5112487792968751 0.25958333333333333 0.5037487792968751 0.24333333333333335 Q 0.49624877929687505 0.22708333333333336 0.49624877929687505 0.2016666666666667 L 0.6545821126302084 0.2016666666666667 M 0.49624877929687505 0.185 Q 0.49624877929687505 0.16833333333333333 0.4997904459635417 0.15270833333333333 Q 0.5033321126302084 0.13708333333333333 0.5106237792968751 0.125 Q 0.5179154459635418 0.11291666666666667 0.5291654459635418 0.10562500000000002 Q 0.5404154459635417 0.09833333333333336 0.5558321126302084 0.09833333333333336 Q 0.5854154459635417 0.09833333333333336 0.6018737792968751 0.12145833333333333 Q 0.6183321126302084 0.14458333333333334 0.6183321126302084 0.185 L 0.49624877929687505 0.185 M 0.9120715332031251 0.19291666666666668 Q 0.9120715332031251 0.21458333333333335 0.904571533203125 0.23437500000000003 Q 0.897071533203125 0.2541666666666667 0.8831131998697918 0.26916666666666667 Q 0.8691548665364583 0.2841666666666667 0.8493631998697917 0.2929166666666667 Q 0.829571533203125 0.3016666666666667 0.8049881998697916 0.3016666666666667 Q 0.7799881998697917 0.3016666666666667 0.7597798665364583 0.29270833333333335 Q 0.7395715332031251 0.28375 0.7256131998697917 0.26875000000000004 Q 0.7116548665364584 0.25375000000000003 0.7039465332031251 0.23395833333333335 Q 0.6962381998697917 0.21416666666666667 0.6962381998697917 0.19291666666666668 Q 0.6962381998697917 0.17125 0.7039465332031251 0.15145833333333333 Q 0.7116548665364584 0.13166666666666668 0.7256131998697917 0.11666666666666667 Q 0.7395715332031251 0.10166666666666668 0.7597798665364583 0.09270833333333334 Q 0.7799881998697917 0.08375000000000002 0.8049881998697916 0.08375000000000002 Q 0.829571533203125 0.08375000000000002 0.8493631998697917 0.09270833333333334 Q 0.8691548665364583 0.10166666666666668 0.8831131998697918 0.11666666666666667 Q 0.897071533203125 0.13166666666666668 0.904571533203125 0.15145833333333333 Q 0.9120715332031251 0.17125 0.9120715332031251 0.19291666666666668 M 0.8724881998697918 0.19291666666666668 Q 0.8724881998697918 0.16375 0.8662381998697917 0.145625 Q 0.8599881998697917 0.1275 0.8499881998697917 0.11750000000000002 Q 0.8399881998697917 0.10750000000000001 0.8279048665364583 0.10395833333333335 Q 0.815821533203125 0.10041666666666668 0.804571533203125 0.10041666666666668 Q 0.793321533203125 0.10041666666666668 0.7812381998697917 0.10395833333333335 Q 0.7691548665364584 0.10750000000000001 0.758946533203125 0.11750000000000002 Q 0.7487381998697917 0.1275 0.7422798665364584 0.145625 Q 0.735821533203125 0.16375 0.735821533203125 0.19291666666666668 Q 0.735821533203125 0.22166666666666668 0.7422798665364584 0.23979166666666668 Q 0.7487381998697917 0.2579166666666667 0.758946533203125 0.2679166666666667 Q 0.7691548665364584 0.2779166666666667 0.7812381998697917 0.28145833333333337 Q 0.793321533203125 0.28500000000000003 0.804571533203125 0.28500000000000003 Q 0.815821533203125 0.28500000000000003 0.8279048665364583 0.28145833333333337 Q 0.8399881998697917 0.2779166666666667 0.8499881998697917 0.2679166666666667 Q 0.8599881998697917 0.2579166666666667 0.8662381998697917 0.23979166666666668 Q 0.8724881998697918 0.22166666666666668 0.8724881998697918 0.19291666666666668 M 0.9662302652994792 0.4008333333333334 L 1.0016469319661458 0.4008333333333334 L 1.0016469319661458 0.2625 L 1.0033135986328126 0.2625 Q 1.0074802652994792 0.2733333333333334 1.0143552652994792 0.2808333333333334 Q 1.0212302652994791 0.28833333333333333 1.0299802652994792 0.2929166666666667 Q 1.0387302652994792 0.29750000000000004 1.0485219319661458 0.29958333333333337 Q 1.0583135986328125 0.3016666666666667 1.0683135986328125 0.3016666666666667 Q 1.089146931966146 0.3016666666666667 1.1066469319661458 0.2939583333333334 Q 1.124146931966146 0.28625 1.1368552652994792 0.27208333333333334 Q 1.1495635986328125 0.2579166666666667 1.1566469319661459 0.23770833333333335 Q 1.1637302652994792 0.21750000000000003 1.1637302652994792 0.19291666666666668 Q 1.1637302652994792 0.1679166666666667 1.1566469319661459 0.14791666666666667 Q 1.1495635986328125 0.12791666666666668 1.1368552652994792 0.11354166666666668 Q 1.124146931966146 0.09916666666666668 1.1066469319661458 0.09145833333333334 Q 1.089146931966146 0.08375000000000002 1.0683135986328125 0.08375000000000002 Q 1.0187302652994792 0.08375000000000002 1.0033135986328126 0.12208333333333335 L 1.0016469319661458 0.12208333333333335 L 1.0016469319661458 0.08833333333333335 L 0.9662302652994792 0.08833333333333335 L 0.9662302652994792 0.4008333333333334 M 1.0016469319661458 0.1716666666666667 Q 1.0016469319661458 0.15791666666666668 1.0060219319661459 0.145625 Q 1.0103969319661459 0.13333333333333336 1.0183135986328125 0.12437500000000001 Q 1.0262302652994792 0.11541666666666667 1.0368552652994791 0.11020833333333335 Q 1.0474802652994792 0.10500000000000001 1.0595635986328125 0.10500000000000001 Q 1.0724802652994792 0.10500000000000001 1.0843552652994792 0.10979166666666668 Q 1.096230265299479 0.11458333333333334 1.1049802652994791 0.125 Q 1.1137302652994792 0.13541666666666669 1.1189385986328126 0.15208333333333335 Q 1.124146931966146 0.16875 1.124146931966146 0.19208333333333336 Q 1.124146931966146 0.21583333333333335 1.1189385986328126 0.2325 Q 1.1137302652994792 0.2491666666666667 1.104771931966146 0.2597916666666667 Q 1.0958135986328126 0.2704166666666667 1.0841469319661459 0.27520833333333333 Q 1.0724802652994792 0.28 1.0595635986328125 0.28 Q 1.047896931966146 0.28 1.0374802652994792 0.27520833333333333 Q 1.0270635986328125 0.2704166666666667 1.019146931966146 0.26104166666666667 Q 1.0112302652994791 0.2516666666666667 1.0064385986328126 0.23833333333333334 Q 1.0016469319661458 0.22500000000000003 1.0016469319661458 0.2079166666666667 L 1.0016469319661458 0.1716666666666667 M 1.2616485595703126 0.0050000000000000044 L 1.226231892903646 0.0050000000000000044 L 1.226231892903646 0.2966666666666667 L 1.2616485595703126 0.2966666666666667 L 1.2616485595703126 0.0050000000000000044 M 1.5216373697916667 0.2016666666666667 L 1.5216373697916667 0.19291666666666668 Q 1.5216373697916667 0.165 1.5137207031250002 0.14458333333333334 Q 1.5058040364583336 0.12416666666666668 1.4922623697916668 0.11083333333333334 Q 1.478720703125 0.0975 1.4608040364583335 0.09083333333333335 Q 1.4428873697916669 0.08416666666666667 1.4228873697916669 0.08416666666666667 Q 1.4016373697916669 0.08416666666666667 1.383720703125 0.09145833333333334 Q 1.3658040364583335 0.09875 1.352470703125 0.11270833333333335 Q 1.3391373697916669 0.12666666666666668 1.3316373697916668 0.14645833333333336 Q 1.3241373697916667 0.16625 1.3241373697916667 0.19125000000000003 Q 1.3241373697916667 0.21208333333333335 1.3305957031250002 0.23187500000000003 Q 1.3370540364583334 0.2516666666666667 1.3501790364583335 0.2672916666666667 Q 1.3633040364583335 0.2829166666666667 1.383512369791667 0.29229166666666667 Q 1.403720703125 0.3016666666666667 1.4312207031250002 0.3016666666666667 Q 1.4578873697916668 0.3016666666666667 1.4803873697916667 0.29229166666666667 Q 1.502887369791667 0.2829166666666667 1.5195540364583335 0.2654166666666667 L 1.5062207031250001 0.2520833333333333 Q 1.497470703125 0.25958333333333333 1.4897623697916669 0.26583333333333337 Q 1.4820540364583334 0.27208333333333334 1.4741373697916669 0.27625 Q 1.466220703125 0.2804166666666667 1.4576790364583334 0.28270833333333334 Q 1.4491373697916667 0.28500000000000003 1.4387207031250002 0.28500000000000003 Q 1.4270540364583335 0.28500000000000003 1.4139290364583335 0.28145833333333337 Q 1.4008040364583334 0.2779166666666667 1.3895540364583334 0.26875000000000004 Q 1.3783040364583334 0.25958333333333333 1.3708040364583334 0.24333333333333335 Q 1.3633040364583335 0.22708333333333336 1.3633040364583335 0.2016666666666667 L 1.5216373697916667 0.2016666666666667 M 1.3633040364583335 0.185 Q 1.3633040364583335 0.16833333333333333 1.366845703125 0.15270833333333333 Q 1.3703873697916669 0.13708333333333333 1.3776790364583336 0.125 Q 1.384970703125 0.11291666666666667 1.3962207031250002 0.10562500000000002 Q 1.4074707031250002 0.09833333333333336 1.4228873697916669 0.09833333333333336 Q 1.4524707031250002 0.09833333333333336 1.4689290364583334 0.12145833333333333 Q 1.4853873697916669 0.14458333333333334 1.4853873697916669 0.185 L 1.3633040364583335 0.185" fill="#3361e1" fill-rule="nonzero"></path></g><g transform="matrix(1,0,0,1,0,0)"><g transform="matrix(1,0,0,1,0,0)" clip-path="url(#SvgjsClipPath2990)"><g clip-path="url(#SvgjsClipPath2985a6d6e3a1-b6c5-4634-9f90-0df3633f7dfa)"><path d=" M 0.0948589935197024 -1.7847486444093157 C 0.14179413010486508 -1.7843996842860061 0.15028549310540273 -1.7125138988841966 0.15656677532497865 -1.626407988457513 C 0.17163022064785016 -1.5020037044975838 0.2732648565618174 -1.2645363405852934 0.3116795501361669 -1.18148383123757 C 0.3633838084065619 -1.0831352364847704 0.5174787828580969 -0.8761437233415311 0.6183573385048924 -0.7479008780251952 C 0.5830258796269372 -0.7013827566009732 0.5423990623619264 -0.659135941337885 0.4972972557266817 -0.6220135135411986 C 0.4559552764261263 -0.591634558406394 0.4115628318123108 -0.5656423191561097 0.36483780892035256 -0.5444571261356059 L 0.20928883395502762 -0.7593002420533128 C 0.08133678874144956 -0.8166169423069407 0.049872217623019854 -1.0784242748200876 0.04457965575282208 -1.218764404411163 L 0.0436200154137204 -1.219578644698886 L 0.0436200154137204 -1.6942516524309839 C 0.04362001541371974 -1.7269375839809986 0.0564733799556294 -1.7849812844915232 0.0948589935197024 -1.7847486444093157 Z" fill="#3361e1" transform="matrix(1,0,0,1,0,0)" fill-rule="nonzero"></path></g><g clip-path="url(#SvgjsClipPath2985a6d6e3a1-b6c5-4634-9f90-0df3633f7dfa)"><path d=" M 0.014540005137906542 -1.6968688533558087 L 0.014540005137906542 -1.2635767002461917 C 0.014770882572046728 -1.1697312837242744 0.024809552429766568 -1.076166982137725 0.04449241572198148 -0.9844086015984407 C 0.06868698427147046 -0.8817852453350403 0.10742155795885355 -0.7803250894827285 0.18989246710106 -0.7367632340895589 L 0.33776431935357065 -0.5325343219225227 C 0.3502687237721709 -0.5378850438132727 0.3693742905233792 -0.5464636468446358 0.39144601832272197 -0.5576012907802734 L 0.23287272228871259 -0.7766028481674239 C 0.22989151451990808 -0.7807260761417159 0.22588064164827126 -0.7839949375321 0.22124071817838664 -0.7860829315173394 C 0.16584329860296254 -0.8089979796146807 0.12335740358999914 -0.8967905306373596 0.10125659578038149 -0.9973201261608463 C 0.08253747495368491 -1.084841433421556 0.07299610011899338 -1.174076191323938 0.07278726572036098 -1.2635767002461917 C 0.07255462563815329 -1.2714864630412137 0.07365966602863461 -1.3058299551769479 0.07473562640883946 -1.328541443202359 C 0.07581158678904476 -1.351252931227769 0.07956290811462452 -1.3944367464873513 0.09602219393073508 -1.3944949065079015 C 0.10838119829795567 -1.3944949065079015 0.11320848000374095 -1.3853347032710215 0.11969332229524676 -1.3714635383694587 C 0.12858147009783494 -1.3443805883439184 0.1325984933704647 -1.3159365191414008 0.13155796648777884 -1.2874513886826346 C 0.1315579664877784 -1.2801813861136813 0.13132532640557137 -1.2726496634522453 0.13100544629253763 -1.2649725407394297 L 0.13301196700156837 -1.2528752564646917 C 0.1615103770718651 -1.1818037113506028 0.21260395512646868 -1.0789767950153282 0.22606799988416992 -1.0102025707130298 L 0.22606799988416992 -1.0102025707130298 C 0.22923761325893866 -0.9944671632813447 0.24455726230561092 -0.9842757569911624 0.26029517197880203 -0.987432922667067 C 0.2678626209357371 -0.9889418125797872 0.27452009595284155 -0.993396512469476 0.2788016504437487 -0.9998161171010647 C 0.28308320493465566 -1.0062357217326547 0.2846377494103971 -1.0140938204965713 0.28312298004531633 -1.0216600947617003 C 0.26695449433196305 -1.1013393229174286 0.21670423657535864 -1.2009092781018125 0.18939810692636905 -1.2686366220341814 C 0.1896598270188512 -1.2748888242434802 0.18977614705995505 -1.2811410264527816 0.18977614705995505 -1.2875386287134587 C 0.19152290377596382 -1.3256883958011898 0.18517008795490209 -1.3637755583602202 0.1711358604731592 -1.3992931082034124 C 0.1721245808225358 -1.4125826728994568 0.1740438615007398 -1.42610487767771 0.17622486227142642 -1.4396852424765152 C 0.21344727542446718 -1.3318274843635236 0.26160377244121436 -1.2215851654079162 0.28606006108317295 -1.1682815065723493 C 0.34107944052501105 -1.0642332298054904 0.4984895361479882 -0.8534322353161199 0.5998042919489213 -0.7249858299278527 C 0.6186481386076474 -0.7477845579840894 0.6319667833139704 -0.7658432443653682 0.636648664968376 -0.7722408466260491 C 0.5362353894859933 -0.9001928918396259 0.38612437644224507 -1.1024443633079086 0.3382005195077049 -1.1939009956253406 C 0.28353990660071116 -1.3115782121894668 0.23748246552384922 -1.4330633384736584 0.2003903508106244 -1.5574011240730097 C 0.21210008335579222 -1.591755257632424 0.21388408339983456 -1.628715303742616 0.20553751262944586 -1.6640375217544103 C 0.19795769459044843 -1.65912764471842 0.19081623244203016 -1.6535720931015994 0.18419278508699866 -1.647432835886921 C 0.18246932706654584 -1.6729144238885478 0.17921619629550412 -1.6982694222264274 0.1744509816446007 -1.7233607427170643 C 0.18385699792604604 -1.7644194744720751 0.17852482172118878 -1.807478341392769 0.15938753632172875 -1.8450024257007973 C 0.14775159163706642 -1.8328300197101428 0.13806967274502546 -1.8189300409157945 0.1306855661795021 -1.8037960511399698 C 0.11983928491432283 -1.8104276174960474 0.10733815401245517 -1.813855346936883 0.0946263534374927 -1.8136832546337454 C 0.06428185062856095 -1.8154099576714908 0.036763186451961305 -1.7959587721689259 0.028265769988086498 -1.7667771980588582 C 0.01931290823422782 -1.744551461360702 0.014655397657797775 -1.7208297337637954 0.014540005137906542 -1.6968688533558087 Z M 0.07270002568953293 -1.4478276453537435 C 0.0694521866233413 -1.496132200890287 0.08219559849597968 -1.5441627027358396 0.10896279850347357 -1.5845036936500656 C 0.11832656181228418 -1.5954086975034953 0.12626540461758107 -1.5992181788496256 0.13554192789556563 -1.5961356977603895 C 0.14481845117354952 -1.5930532166711533 0.1471739320058909 -1.5847072537219953 0.1461270516359614 -1.5680153278236793 C 0.14441133102968862 -1.5396332377944848 0.13469860759756713 -1.4948209419594571 0.12699240487447638 -1.4458792846652637 C 0.11727208085105811 -1.450445108505421 0.10664438570366275 -1.4527515867787575 0.09590587388963256 -1.4526258470492515 C 0.08790601812679366 -1.4526870105596397 0.07998829453758027 -1.4510101994235773 0.07270002568953227 -1.4477113253126417 Z M 0.09462635343749604 -1.7558140341848807 C 0.10535687722927123 -1.7558140341848807 0.11073667913029639 -1.7468573910199305 0.11483696057918569 -1.7286823845975472 C 0.12027260552322794 -1.7018959209588436 0.1238675495451309 -1.6747686676908624 0.12559656438123667 -1.647490995907479 C 0.10443171495406744 -1.6461198386224383 0.08499713445175971 -1.6353299644391144 0.07264186566898134 -1.618091105518629 L 0.07264186566898134 -1.69977685438339 C 0.07270002568953293 -1.7122812588019902 0.07133326520656968 -1.7559885142465368 0.09468451345804763 -1.7556977141437788 Z" fill="#000000" transform="matrix(1,0,0,1,0,0)" fill-rule="nonzero"></path></g><g clip-path="url(#SvgjsClipPath2985a6d6e3a1-b6c5-4634-9f90-0df3633f7dfa)"><path d=" M 0.31793175234546567 -0.4317430063065546 C 0.38118077469535927 -0.4333133268614484 0.47019468614962334 -0.48074282362130094 0.5640940393302247 -0.5542861696088324 L 0.5640940393302247 -0.5542861696088324 C 0.6101457895392148 -0.590332283983142 0.6520023671549346 -0.6314377647737839 0.6888763634237387 -0.6768293329111088 L 0.6888763634237387 -0.6768293329111088 C 0.7170909605270877 -0.7071469700740016 0.7352329970199949 -0.745452468178567 0.7408132617763414 -0.7864900516612006 L 0.7408132617763414 -0.7864900516612006 C 0.7411782988731863 -0.7995965509089915 0.7369620264400873 -0.8124201892603939 0.7288904575632569 -0.8227528244751403 L 0.7288904575632582 -0.8227528244751403 C 0.7158541948717392 -0.8377734755097945 0.6965736137359886 -0.8458769081610513 0.6767209191284487 -0.8446791522231034 L 0.6767209191284487 -0.8446791522231034 C 0.6742200382447283 -0.8446791522231034 0.6711957171760445 -0.8446791522231034 0.6679969160457047 -0.8443301920997939 L 0.6679969160457047 -0.8443301920997939 C 0.6521590212466473 -0.8429299559954406 0.6404475158641203 -0.8289672390227181 0.6418249067974722 -0.8131273410738464 L 0.6418249067974722 -0.8131273410738464 C 0.6433148483487061 -0.7973595295704203 0.6572500099465732 -0.7857490594227086 0.6730277578234203 -0.7871298118872705 L 0.6730277578234203 -0.7871298118872705 C 0.6802105203615463 -0.7871298118872705 0.6855612422522963 -0.7879440521749925 0.682944041327473 -0.7809066896882455 C 0.6746006699152289 -0.7556767612655326 0.6612920672285374 -0.7323718752829673 0.6438023474962282 -0.7123651054681519 L 0.6438023474962282 -0.7123651054681519 C 0.6096897491124869 -0.6704065470115477 0.5709525632761676 -0.6324302527630479 0.5283256266909739 -0.5991566254644116 L 0.5283256266909739 -0.5991566254644116 C 0.44227787628484205 -0.5293646008024626 0.3509375640085133 -0.487634786056671 0.31798991236601637 -0.48917602660128834 L 0.31798991236601637 -0.48917602660128834 C 0.3145293911431952 -0.48917602660128834 0.31173771015671714 -0.4959225889852774 0.3132498706910587 -0.5010406707938198 L 0.3132498706910587 -0.5010406707938198 L 0.3132498706910587 -0.5010406707938198 C 0.3155494841322539 -0.5083017961457754 0.3148562262951682 -0.5161804078455237 0.31132391994463005 -0.5229283686635549 C 0.307791613594091 -0.5296763294815874 0.3017123802570587 -0.5347355834560403 0.2944351040426081 -0.5369835634947253 L 0.2944351040426081 -0.5369835634947253 C 0.28717773249175194 -0.539266078473426 0.2793101657802428 -0.5385645697124286 0.2725711097493013 -0.5350340682937909 C 0.26583205371836094 -0.5315035668751531 0.26077634971283126 -0.5254347467665761 0.2585212913519783 -0.5181687968462747 L 0.2585212913519783 -0.5181687968462747 C 0.25551975649169045 -0.5090719965187369 0.2539309705361894 -0.4995687027478666 0.2538103296872969 -0.48999026688901304 L 0.2538103296872962 -0.48999026688901304 C 0.2535456107788072 -0.4768671377732989 0.257761316452344 -0.46404564849855334 0.26576221391065524 -0.453640254044245 L 0.26576221391065524 -0.453640254044245 C 0.2787516841305713 -0.43873553221954875 0.2979025142727809 -0.4306737197549755 0.3176409522427064 -0.4318011663271102 L 0.3179899123660159 -0.4318011663271102 Z" fill="#000000" transform="matrix(1,0,0,1,0,0)" fill-rule="nonzero"></path></g><g clip-path="url(#SvgjsClipPath2985a6d6e3a1-b6c5-4634-9f90-0df3633f7dfa)"><path d=" M 0.4291627916504517 -0.36855214397721237 C 0.481681290208571 -0.36977350440879553 0.5551664761755501 -0.4083045180242506 0.6319086232934215 -0.46852921930545843 L 0.6319086232934215 -0.46852921930545843 C 0.669844678665763 -0.498156749493883 0.704223164424095 -0.5320765952208104 0.7343574994951114 -0.5696113350241845 L 0.7343574994951114 -0.5696113350241845 C 0.7574730953342979 -0.5948950868401663 0.7722369503779731 -0.6266871295786465 0.7766398344361438 -0.6606608471977555 L 0.7766398344361438 -0.6606608471977555 C 0.776921080634686 -0.6719552880246009 0.7732029957064863 -0.682985949958399 0.7661419507265754 -0.6918055382031516 L 0.7661419507265754 -0.6918055382031516 C 0.7621817601311991 -0.6965374285385801 0.7565039314463617 -0.6995022040927867 0.7503576745885101 -0.7000475684989846 C 0.7442114177306591 -0.7005929329051828 0.738100270344173 -0.6986742066918219 0.7333687791457342 -0.6947135392307342 L 0.7333687791457342 -0.6947135392307342 C 0.7237311682091168 -0.6866605483550772 0.7222251972092855 -0.6724117458182182 0.7299664179434644 -0.662521967855406 L 0.7299664179434644 -0.662521967855406 C 0.7300206136652885 -0.6619027779349804 0.7300206136652885 -0.6612800371181811 0.7299664179434644 -0.6606608471977542 L 0.7299664179434644 -0.6606608471977542 C 0.7248906839665288 -0.6372932120166597 0.7136438541229626 -0.6157133572543179 0.6973968064345528 -0.5981679051150322 L 0.6973968064345528 -0.5981679051150322 C 0.6695586805070104 -0.5635442821706749 0.6378160811306759 -0.5322505483250233 0.6027995330073339 -0.5049083121605014 L 0.6027995330073332 -0.5049083121605014 C 0.5323386681090376 -0.44776609196852823 0.4576030417001984 -0.41391696000747946 0.42901739159907337 -0.41513832043906507 L 0.42901739159907337 -0.41513832043906507 C 0.42643137827860844 -0.4150040746769279 0.42384202886063904 -0.41532897403355484 0.4213693488965342 -0.41609796077816674 L 0.4213693488965342 -0.41609796077816674 L 0.4209913087629491 -0.41609796077816674 C 0.41713262435230347 -0.42091650265280833 0.41151701720569767 -0.4240038466684237 0.40538102673571763 -0.4246801691735582 C 0.3992450362657378 -0.4253564916786967 0.39309181999206344 -0.423566333533405 0.3882762972026592 -0.4197038820523682 L 0.3882762972026592 -0.4197038820523682 C 0.3782605166837121 -0.4116703961176029 0.3766466591981168 -0.39704155890945847 0.38467037592845776 -0.38701795050235344 L 0.38467037592845843 -0.38701795050235344 C 0.39574581479528725 -0.37447110708547604 0.41195799680269274 -0.3676883501716044 0.4286684314757634 -0.3686103039977666 L 0.42901739159907337 -0.3686103039977666 Z" fill="#000000" transform="matrix(1,0,0,1,0,0)" fill-rule="nonzero"></path></g><g clip-path="url(#SvgjsClipPath2985a6d6e3a1-b6c5-4634-9f90-0df3633f7dfa)"><path d=" M 0.4848800913389095 -0.2965791185445761 C 0.5373695098867528 -0.297800478976159 0.6108256158434562 -0.33630241258133653 0.6876259229818793 -0.3965271138625457 L 0.6876259229818793 -0.3965271138625457 C 0.7255308080449738 -0.4261714344174281 0.7598796070111389 -0.46010063157804115 0.7899875591527425 -0.49763830959154953 L 0.7899875591527425 -0.49763830959154953 C 0.8131104779772991 -0.5229156969416715 0.8279020032521118 -0.5546915885752759 0.8323571341246021 -0.5886587417548428 L 0.8323571341246021 -0.5886587417548428 C 0.8326510753912637 -0.5999510933470036 0.8289198021192126 -0.6109799950074881 0.8218301704047568 -0.6197743527499624 L 0.8218301704047575 -0.6197743527499624 C 0.813633225445898 -0.6296166698954282 0.7990223170696769 -0.6309815679198982 0.789144238854744 -0.6228277538289246 L 0.789144238854744 -0.6228277538289246 C 0.7794517752237811 -0.6147865539162354 0.7779179737920192 -0.6004925556992371 0.785683717631922 -0.5905780224330459 L 0.785683717631922 -0.5905780224330459 C 0.7857365879663507 -0.5899393545194382 0.7857365879663507 -0.5892974096684529 0.785683717631922 -0.5886587417548428 L 0.785683717631922 -0.5886587417548428 C 0.7806077403496732 -0.5652851484520329 0.7693496551884529 -0.5437029673534943 0.753085026112736 -0.5261657996721221 L 0.7530850261127353 -0.5261657996721221 C 0.7252515142161475 -0.49153920428606623 0.6935193540677396 -0.46023638455787075 0.6585168326957895 -0.43287712670731215 L 0.6585168326957902 -0.43287712670731215 C 0.5880559677974948 -0.3757930665358906 0.5132912613783795 -0.34191485456456916 0.48473469128753055 -0.34313621499615365 L 0.48473469128753055 -0.34313621499615365 C 0.48216708482596826 -0.34298186080553283 0.47959319599239314 -0.34330729502587043 0.47714480860554365 -0.34409585533525533 L 0.4769121685233366 -0.34409585533525533 C 0.4688786825885727 -0.3541116358541996 0.45424984538042934 -0.3557254933397971 0.4442262369733232 -0.3477017766094568 L 0.4442262369733232 -0.3477017766094568 C 0.43940769509868094 -0.3438430921988105 0.43632035108306555 -0.3382274850522067 0.4356440285779304 -0.33209149458222553 C 0.43496770607279456 -0.32595550411224683 0.43675786421808493 -0.3198022878385711 0.4406203156991224 -0.3149867650491669 L 0.4406203156991224 -0.3149867650491669 C 0.45169701050709277 -0.30245893541390867 0.46789108897559606 -0.2956792716106267 0.4845892912361516 -0.2965791185445774 L 0.48493825135946156 -0.2965791185445774 Z" fill="#000000" transform="matrix(1,0,0,1,0,0)" fill-rule="nonzero"></path></g><g clip-path="url(#SvgjsClipPath2985a6d6e3a1-b6c5-4634-9f90-0df3633f7dfa)"><path d=" M 0.5112556606590719 -0.18761632004110318 L 0.5109067005357617 -0.18761632004110318 C 0.4904505770995866 -0.18643560892626376 0.4705921824437993 -0.1947501717886264 0.4570796015152314 -0.21015332800485842 L 0.4570796015152314 -0.21015332800485842 C 0.44716856727016485 -0.2226823464785792 0.4492200898976373 -0.24086039507643608 0.4616742431388092 -0.25086534239099567 L 0.46167424313880967 -0.25086534239099567 C 0.47415757494358757 -0.26081695253056925 0.49232954332138346 -0.2588439959638382 0.5023862575249476 -0.24644518082907463 L 0.5023862575249483 -0.24673598093183124 L 0.5023862575249483 -0.24673598093183124 C 0.5052200700660567 -0.24592317739063718 0.5081638796913495 -0.24556010753685076 0.5111102606076929 -0.2456600205516264 L 0.5111102606076929 -0.2456600205516264 C 0.5449303125584639 -0.2441187800070077 0.634962024372381 -0.28480171438287116 0.719613934285273 -0.3534596186440653 L 0.719613934285273 -0.3534596186440653 C 0.7616661233510069 -0.38639072557221477 0.7998148543534414 -0.4240223510137462 0.8333167744637024 -0.46562121827787983 L 0.8333167744637024 -0.46562121827787983 C 0.8527215691063008 -0.48657249530262336 0.8662097601033456 -0.5123044311035301 0.8724003082743963 -0.5401823646250619 L 0.8724003082743963 -0.5401823646250619 C 0.8724666707577378 -0.5408009634488335 0.8724666707577378 -0.5414248864589457 0.8724003082743963 -0.542043485282715 L 0.8724003082743963 -0.542043485282715 C 0.8629384604120176 -0.554440196310396 0.8649398743168928 -0.5720936933174967 0.876936789877423 -0.5820575794222331 L 0.876936789877423 -0.5820575794222331 C 0.8892880912152106 -0.5923175650191348 0.907617531553806 -0.5906252161242365 0.917881444345769 -0.5782771780863769 L 0.9178814443457677 -0.5782771780863769 C 0.9265365043891722 -0.5675004025989849 0.9310815317742918 -0.5539993008427362 0.9307057288774017 -0.5401823646250619 L 0.9307057288774017 -0.5401823646250619 C 0.9254029677439428 -0.49905042045535075 0.9075284546891387 -0.460559281547561 0.8795249107919705 -0.42996912567972956 L 0.8795249107919705 -0.42996912567972956 C 0.8432111826267945 -0.3846966718610998 0.8017883127663685 -0.3437714619212584 0.756080267171144 -0.30800756258297146 L 0.7560802671711433 -0.30800756258297146 C 0.6634022744221264 -0.2353075368934372 0.5750281231939305 -0.18895400051379063 0.5113138206796235 -0.1875 Z" fill="#000000" transform="matrix(1,0,0,1,0,0)" fill-rule="nonzero"></path></g><g clip-path="url(#SvgjsClipPath2985a6d6e3a1-b6c5-4634-9f90-0df3633f7dfa)"><path d=" M -0.0948589935197024 -1.7847486444093157 C -0.1417941301048652 -1.7843996842860061 -0.15028549310540285 -1.7125138988841966 -0.15656677532497876 -1.626407988457513 C -0.17163022064785016 -1.5020037044975838 -0.2732939365720932 -1.2645363405852934 -0.3116795501361669 -1.18148383123757 C -0.36338380840656204 -1.0831352364847704 -0.5174787828580969 -0.8761437233415311 -0.6183573385048924 -0.7479008780251952 C -0.5830258796269379 -0.7013827566009732 -0.5423990623619264 -0.659135941337885 -0.4972972557266823 -0.6220135135411986 C -0.455955276426127 -0.5916345584063953 -0.41156283181231224 -0.5656423191561111 -0.364837808920354 -0.5444571261356073 L -0.2092888339550284 -0.7593002420533128 C -0.08133678874145034 -0.8166169423069407 -0.04987221762302063 -1.0784242748200876 -0.044579655752822744 -1.218764404411163 L -0.04362001541372118 -1.219578644698886 L -0.04362001541372118 -1.6942516524309839 C -0.04362001541371985 -1.7269375839809986 -0.05647337995562951 -1.7849812844915232 -0.0948589935197024 -1.7847486444093157 Z" fill="#3361e1" transform="matrix(1,0,0,1,0,0)" fill-rule="nonzero"></path></g><g clip-path="url(#SvgjsClipPath2985a6d6e3a1-b6c5-4634-9f90-0df3633f7dfa)"><path d=" M -0.02814944994698676 -1.7668353580794152 C -0.03665615499449704 -1.7960103077838112 -0.0641686759843566 -1.8154571510601678 -0.0945100333963923 -1.813741414654302 C -0.10722183397135543 -1.81391350695744 -0.1197229648732232 -1.8104857775166041 -0.1305692461384016 -1.8038542111605254 C -0.13795335270392495 -1.8189882009363527 -0.1476352715959659 -1.8328881797306997 -0.1592712162806289 -1.845060585721353 C -0.17840850168008837 -1.807536501413326 -0.18374067788494552 -1.764477634492632 -0.17433466160349964 -1.7234189027376265 C -0.17909987625440438 -1.6983275822469883 -0.1823530070254461 -1.6729725839091087 -0.1840764650458988 -1.647490995907479 C -0.19071289092673582 -1.6536271965852278 -0.1978637356645344 -1.6591824786876541 -0.20545027259862192 -1.6640956817749686 C -0.2137795710011886 -1.6287700153124192 -0.2119855975289655 -1.5918121460841037 -0.20027403076952655 -1.55745928409356 C -0.23736614548275004 -1.4331214984942124 -0.28342358655961264 -1.3116363722100195 -0.33808419946660695 -1.1939591556458922 C -0.3860080564011452 -1.102386203287361 -0.5361481494551692 -0.9002510518601828 -0.6365323449272763 -0.7722990066466047 C -0.6318795432831464 -0.7659014043859262 -0.6185608985768243 -0.7478427180046463 -0.5996879719078214 -0.7250439899484082 C -0.49837321610688845 -0.8534903953366754 -0.34087588045308315 -1.064291389826046 -0.2859437410420731 -1.1683396665929062 C -0.26148745240011395 -1.2216724054387482 -0.21324371535254005 -1.3318856443840805 -0.17610854223032668 -1.4397434024970721 C -0.17389846144936483 -1.426163037698267 -0.17200826078143738 -1.4126408329200137 -0.17101954043205936 -1.3993512682239666 C -0.1850517726421138 -1.363832554728819 -0.19141408242949676 -1.3257478872632245 -0.18968890702913233 -1.287596788734017 C -0.189688907029131 -1.2811991864733359 -0.189688907029131 -1.274946984264037 -0.1892817868852693 -1.2686947820547383 C -0.21658791653425813 -1.2009674381223694 -0.2668381742908633 -1.1013974829379856 -0.2830066600042159 -1.0217182547822572 C -0.2845214293692966 -1.0141519805171282 -0.28296688489355526 -1.0062938817532117 -0.2786853304026482 -0.9998742771216216 C -0.27440377591174114 -0.9934546724900328 -0.2677463008946366 -0.9889999726003453 -0.26017885193770285 -0.9874910826876238 C -0.24445095359597246 -0.984351960627811 -0.22915082047728186 -0.9945390390563276 -0.22598075985334654 -1.0102607307335867 L -0.22598075985334654 -1.0102607307335867 C -0.2125457951059212 -1.079034955035885 -0.16145221705131751 -1.1818327913608833 -0.13292472697074498 -1.2529334164852486 L -0.1309182062617137 -1.2650307007599864 C -0.131238086374748 -1.2727078234728009 -0.1314998064672307 -1.2802395461342368 -0.1314998064672307 -1.28750954870319 C -0.13251806542572497 -1.315995734743279 -0.12849150967507617 -1.3444375918670564 -0.11960608226442204 -1.3715216983900156 C -0.11312123997291634 -1.385392863291577 -0.10829395826713173 -1.39461122654901 -0.09593495389991114 -1.3945530665284585 C -0.07947566808380124 -1.3945530665284585 -0.07575342676849728 -1.3513110912483233 -0.07464838637801607 -1.3285996032229146 C -0.07354334598753487 -1.305888115197506 -0.07246738560733068 -1.2715446230617693 -0.07270002568953637 -1.2636348602667486 C -0.07290614314509469 -1.1741326649245027 -0.08245740156909087 -1.0848966219345115 -0.10119843575980669 -0.9973782861815275 C -0.12327016355917453 -0.8968486906579177 -0.16575605857213793 -0.8090561396352363 -0.2211534781475627 -0.786141091537895 C -0.22579340161744788 -0.7840530975526567 -0.2298042744890847 -0.7807842361622725 -0.23278548225788864 -0.7766610081879792 L -0.39135877829189725 -0.5576594508008301 C -0.3692870504925553 -0.5465218068651954 -0.35018148374134617 -0.5379432038338297 -0.33767707932274604 -0.5325924819430783 L -0.1898052270702354 -0.7368213941101158 C -0.10733431792802883 -0.7804414095238357 -0.06859974424064641 -0.8818434053555972 -0.04440517569116942 -0.984466761618942 C -0.024722312398951174 -1.076225142158225 -0.014683642541227337 -1.1697894437447758 -0.014452765107082599 -1.2636348602667473 L -0.014452765107082599 -1.6969270133763654 C -0.014558911424074616 -1.7208860199706153 -0.019206541263280696 -1.7446076805511916 -0.02814944994698676 -1.7668353580794165 Z M -0.0959640339101836 -1.4525967670389777 C -0.10670254572421312 -1.4527225067684824 -0.11733024087160837 -1.4504160284951473 -0.12705056489502675 -1.4458502046549873 C -0.13475676761811817 -1.4949372620005603 -0.144498571060516 -1.5397495578355893 -0.146185211656513 -1.5679862478134041 C -0.14723209202644194 -1.5846781737117215 -0.14487661119410122 -1.5930241366608784 -0.13560008791611666 -1.5961066177501144 C -0.12632356463813144 -1.5991890988393505 -0.11838472183283433 -1.5954086975034953 -0.10902095852402383 -1.5844746136397903 C -0.08225375851653127 -1.5441336227255644 -0.06951034664389222 -1.4961031208800106 -0.07275818571008397 -1.4477985653434682 C -0.08005542046897163 -1.4510574343937366 -0.08797276900641615 -1.4526944801439592 -0.09596403391018493 -1.4525967670389777 Z M -0.07270002568953304 -1.69977685438339 L -0.07270002568953304 -1.6180911055186302 C -0.08505529447231208 -1.6353299644391144 -0.10448987497461915 -1.6461198386224383 -0.12565472440178904 -1.6474909959074764 C -0.1239257095656826 -1.6747686676908624 -0.1203307655437802 -1.7018959209588436 -0.11489512059973728 -1.7286823845975499 C -0.11082391916112455 -1.7468573910199305 -0.10541503724982293 -1.7556686341335024 -0.09468451345804763 -1.7558140341848807 C -0.0713332652065698 -1.7559885142465368 -0.07270002568953304 -1.7122812588019902 -0.07270002568953304 -1.69977685438339 Z" fill="#000000" transform="matrix(1,0,0,1,0,0)" fill-rule="nonzero"></path></g><g clip-path="url(#SvgjsClipPath2985a6d6e3a1-b6c5-4634-9f90-0df3633f7dfa)"><path d=" M -0.31793175234546567 -0.4317430063065546 C -0.3811807746953594 -0.4333133268614484 -0.47019468614962395 -0.48074282362130094 -0.5640940393302247 -0.5542861696088324 L -0.5640940393302247 -0.5542861696088324 C -0.6101481988981403 -0.590339462339954 -0.6520136515017736 -0.6314440795980403 -0.6889054434340152 -0.6768293329111075 L -0.6889054434340152 -0.6768293329111075 C -0.7171094510382727 -0.7071507360516815 -0.7352411511741818 -0.7454558571791416 -0.7408132617763414 -0.7864900516612006 L -0.7408132617763414 -0.7864900516612006 C -0.7411930264499338 -0.7995986958734889 -0.736975153363999 -0.8124272025519281 -0.7288904575632583 -0.8227528244751403 L -0.7288904575632583 -0.8227528244751403 C -0.7158605635158868 -0.8377650945507342 -0.6965927251179359 -0.8458676880543912 -0.6767499991387245 -0.8446791522231034 L -0.6767499991387245 -0.8446791522231034 C -0.674220038244729 -0.8446791522231034 -0.6711957171760445 -0.8446791522231034 -0.6678805960046015 -0.8443301920997939 L -0.6678805960046015 -0.8443301920997939 C -0.6520427012055449 -0.8429299559954406 -0.6403311958230178 -0.8289672390227181 -0.6417085867563697 -0.8131273410738464 L -0.6417085867563697 -0.8131273410738464 C -0.6431985283076032 -0.7973595295704203 -0.6571336899054695 -0.7857490594227099 -0.6729114377823167 -0.7871298118872705 L -0.6729114377823167 -0.7871298118872705 C -0.6800942003204425 -0.7871298118872705 -0.6854449222111919 -0.7879440521749925 -0.6828277212863691 -0.7809066896882455 C -0.674484349874126 -0.7556767612655326 -0.6611757471874338 -0.7323718752829673 -0.6436860274551245 -0.7123651054681519 L -0.6436860274551245 -0.7123651054681519 C -0.609573429071383 -0.6704065470115477 -0.570836243235064 -0.6324302527630479 -0.5282093066498694 -0.5991566254644116 L -0.5282093066498701 -0.5991566254644116 C -0.44216155624373843 -0.5293646008024626 -0.35082124396740955 -0.487634786056671 -0.31787359232491275 -0.48917602660128834 L -0.31787359232491275 -0.48917602660128834 C -0.3144421511123673 -0.48917602660128834 -0.31162139011561263 -0.4959225889852774 -0.3131626306602313 -0.5010406707938198 L -0.3131626306602313 -0.5010406707938198 L -0.3131626306602313 -0.5010406707938198 C -0.31545290841668716 -0.5083057088397054 -0.31475189678083715 -0.5161840857880402 -0.3112148809701545 -0.522930615945453 C -0.30767786515947326 -0.5296771461028646 -0.30159681653406223 -0.5347349211343424 -0.29431878400150424 -0.5369835634947253 L -0.29431878400150424 -0.5369835634947253 C -0.2870614124506481 -0.539266078473426 -0.2791938457391391 -0.5385645697124286 -0.2724547897081975 -0.5350340682937909 C -0.2657157336772572 -0.5315035668751531 -0.2606600296717275 -0.5254347467665761 -0.2584049713108746 -0.5181687968462747 L -0.2584049713108746 -0.5181687968462747 C -0.2554034364505866 -0.5090719965187369 -0.2538146504950851 -0.4995687027478666 -0.25369400964619315 -0.48999026688901304 L -0.2536940096461925 -0.48999026688901304 C -0.2534292907377035 -0.4768671377732989 -0.2576449964112403 -0.46404564849855334 -0.26564589386955206 -0.453640254044245 L -0.26564589386955206 -0.453640254044245 C -0.27863536408946743 -0.43873553221954875 -0.29778619423167707 -0.4306737197549755 -0.317524632201602 -0.4318011663271102 L -0.3178735923249121 -0.4318011663271102 Z" fill="#000000" transform="matrix(1,0,0,1,0,0)" fill-rule="nonzero"></path></g><g clip-path="url(#SvgjsClipPath2985a6d6e3a1-b6c5-4634-9f90-0df3633f7dfa)"><path d=" M -0.4291627916504518 -0.36855214397721237 C -0.4817103702188461 -0.36977350440879553 -0.5551664761755501 -0.4083045180242506 -0.6319377033036974 -0.46852921930545843 L -0.6319377033036974 -0.46852921930545843 C -0.6698584026776988 -0.4981643514017069 -0.7042264210274086 -0.5320834972800681 -0.7343574994951115 -0.5696113350241832 L -0.7343574994951115 -0.5696113350241832 C -0.7574730953342965 -0.5948950868401663 -0.7722369503779726 -0.6266871295786465 -0.7766398344361438 -0.6606608471977555 L -0.7766398344361438 -0.6606608471977555 C -0.7769210806346847 -0.6719552880245996 -0.7732029957064857 -0.682985949958399 -0.766141950726575 -0.6918055382031516 L -0.766141950726575 -0.6918055382031516 C -0.7621817601311984 -0.6965374285385801 -0.7565039314463606 -0.6995022040927867 -0.7503576745885094 -0.7000475684989846 C -0.7442114177306585 -0.7005929329051828 -0.7381002703441731 -0.6986742066918219 -0.7333687791457335 -0.6947135392307342 L -0.7333687791457335 -0.6947135392307342 C -0.7237403615066509 -0.6866521192000885 -0.7222473585550806 -0.6724042375846753 -0.7299954979537395 -0.662521967855406 L -0.7299954979537395 -0.662521967855406 C -0.7300452075008844 -0.6619025900896154 -0.7300452075008844 -0.6612802249635461 -0.7299954979537395 -0.6606608471977542 L -0.7299954979537395 -0.6606608471977542 C -0.7249197639768039 -0.6372932120166597 -0.7136729341332384 -0.6157133572543179 -0.697425886444828 -0.5981679051150322 L -0.697425886444828 -0.5981679051150322 C -0.6695877605172849 -0.5635442821706749 -0.6378451611409504 -0.5322505483250219 -0.6028286130176077 -0.5049083121605002 L -0.6028286130176077 -0.5049083121605002 C -0.5323968281295888 -0.44776609196852823 -0.4576321217104722 -0.41391696000747946 -0.42904647160934795 -0.41513832043906507 L -0.42904647160934795 -0.41513832043906507 C -0.4264604582888837 -0.4150040746769279 -0.4238711088709143 -0.41532897403355484 -0.42139842890680945 -0.41609796077816674 L -0.4213984289068088 -0.41609796077816674 L -0.4210203887732229 -0.41609796077816674 C -0.41716170436257805 -0.42091650265280833 -0.41154609721597213 -0.4240038466684237 -0.4054101067459922 -0.4246801691735582 C -0.3992741162760117 -0.4253564916786967 -0.3931209000023379 -0.423566333533405 -0.388305377212933 -0.4197038820523682 L -0.388305377212933 -0.4197038820523682 C -0.3782895966939873 -0.4116703961176029 -0.3766757392083919 -0.39704155890945847 -0.3846994559387329 -0.38701795050235344 L -0.3846994559387329 -0.38701795050235344 C -0.3957748948055624 -0.37447110708547604 -0.411987076812968 -0.3676883501716044 -0.4286975114860385 -0.3686103039977666 L -0.42904647160934795 -0.3686103039977666 Z" fill="#000000" transform="matrix(1,0,0,1,0,0)" fill-rule="nonzero"></path></g><g clip-path="url(#SvgjsClipPath2985a6d6e3a1-b6c5-4634-9f90-0df3633f7dfa)"><path d=" M -0.48488009133890947 -0.2965791185445761 C -0.5373985898970279 -0.297800478976159 -0.6108256158434571 -0.33630241258133653 -0.6876550029921551 -0.3965271138625457 L -0.6876550029921551 -0.3965271138625457 C -0.7255445381062837 -0.4261790202542599 -0.7598828720751855 -0.4601075190351265 -0.7899875591527425 -0.49763830959154953 L -0.7899875591527419 -0.49763830959154953 C -0.8131104779772992 -0.5229156969416715 -0.8279020032521113 -0.5546915885752759 -0.8323571341246015 -0.5886587417548428 L -0.8323571341246015 -0.5886587417548428 C -0.8326510753912651 -0.5999510933470036 -0.8289198021192133 -0.6109799950074881 -0.8218301704047575 -0.6197743527499624 L -0.8218301704047575 -0.6197743527499624 C -0.813633225445898 -0.6296166698954282 -0.7990223170696763 -0.6309815679198982 -0.7891442388547434 -0.6228277538289246 L -0.7891442388547434 -0.6228277538289246 C -0.7794517752237804 -0.6147865539162354 -0.7779179737920192 -0.6004925556992371 -0.7856837176319215 -0.5905780224330459 L -0.7856837176319215 -0.5905780224330459 C -0.7857522374740725 -0.5899400968665038 -0.7857522374740725 -0.5892966673213875 -0.7856837176319215 -0.5886587417548428 L -0.7856837176319215 -0.5886587417548428 C -0.7806077403496721 -0.5652851484520329 -0.7693496551884517 -0.5437029673534943 -0.7530850261127348 -0.5261657996721221 L -0.7530850261127354 -0.5261657996721221 C -0.7252515142161476 -0.49153920428606757 -0.693519354067739 -0.46023638455787075 -0.6585168326957902 -0.43287712670731215 L -0.6585168326957909 -0.43287712670731215 C -0.5880559677974955 -0.3757930665358906 -0.5132912613783795 -0.34191485456456916 -0.4847346912875312 -0.34313621499615365 L -0.4847346912875312 -0.34313621499615365 C -0.48216708482596826 -0.34298186080553283 -0.47959319599239314 -0.34330729502587043 -0.47714480860554426 -0.34409585533525533 L -0.4767086084514068 -0.34409585533525533 C -0.4686751225166422 -0.3541116358541996 -0.4540462853084983 -0.3557254933397971 -0.4440226769013921 -0.3477017766094568 L -0.44402267690139274 -0.3477017766094568 C -0.4392041350267517 -0.3438430921988105 -0.43611679101113643 -0.3382274850522067 -0.43544046850600127 -0.33209149458222553 C -0.4347641460008654 -0.32595550411224683 -0.4365543041461565 -0.3198022878385711 -0.4404167556271932 -0.3149867650491669 L -0.44041675562719185 -0.3149867650491669 C -0.45149345043516287 -0.30245893541390867 -0.46768752890366627 -0.2956792716106267 -0.4843857311642218 -0.2965791185445774 L -0.4847346912875319 -0.2965791185445774 Z" fill="#000000" transform="matrix(1,0,0,1,0,0)" fill-rule="nonzero"></path></g><g clip-path="url(#SvgjsClipPath2985a6d6e3a1-b6c5-4634-9f90-0df3633f7dfa)"><path d=" M -0.5112556606590719 -0.18761632004110318 C -0.5749990431836547 -0.1890703205548938 -0.6633731944118506 -0.23548201695509174 -0.7560221071505919 -0.3081238826240733 L -0.7560221071505919 -0.3081238826240733 C -0.8016995777811561 -0.34389294966829564 -0.843092975974823 -0.3848179642897578 -0.8793795107405904 -0.43008544572083407 L -0.8793795107405917 -0.43008544572083407 C -0.9073830546377597 -0.4606756015886655 -0.9252575676925647 -0.49916674049645526 -0.9305603288260234 -0.5402986846661677 L -0.9305603288260234 -0.5402986846661677 C -0.9309361317229128 -0.5541156208838434 -0.9263911043377939 -0.5676167226400921 -0.9177360442943895 -0.5783934981274841 L -0.9177360442943895 -0.5783934981274841 C -0.9074721315024263 -0.5907415361653436 -0.8891426911638304 -0.592433885060242 -0.8767913898260447 -0.5821738994633376 L -0.8767913898260447 -0.5821738994633376 C -0.8647944742655146 -0.5722100133586026 -0.8627930603606393 -0.5545565163515003 -0.8722549082230173 -0.5421598053238206 L -0.8722549082230173 -0.5421598053238206 C -0.8723212707063596 -0.5415412065000489 -0.8723212707063596 -0.5409172834899367 -0.8722549082230173 -0.5402986846661677 L -0.8722549082230173 -0.5402986846661677 C -0.8661061098128215 -0.5124357694157688 -0.8526688586214324 -0.48670528991261586 -0.8333167744637031 -0.465737538318983 L -0.8333167744637031 -0.465737538318983 C -0.7998148543534414 -0.42413867105484937 -0.7616661233510076 -0.3865070456133177 -0.7196139342852731 -0.3535759386851709 L -0.7196139342852738 -0.3535759386851709 C -0.6349620243723818 -0.28491803442397434 -0.544930312558464 -0.24423510004811222 -0.5111102606076929 -0.24577634059272957 L -0.5111102606076929 -0.24577634059272957 C -0.5081638796913502 -0.24567642757795505 -0.5052200700660567 -0.24603949743174036 -0.5023862575249496 -0.24685230097293442 L -0.5023862575249496 -0.24685230097293442 L -0.5023862575249496 -0.24656150087017648 C -0.4923295433213849 -0.25896031600494274 -0.47415757494358834 -0.26093327257167376 -0.4616742431388105 -0.2509816624321013 L -0.4616742431388105 -0.2509816624321013 C -0.4492200898976387 -0.2409767151175406 -0.4471685672701675 -0.22279866651968372 -0.4570796015152335 -0.2102696480459616 L -0.45707960151523286 -0.2102696480459616 C -0.4705921824438008 -0.1948664918297307 -0.490450577099588 -0.18655192896736694 -0.5109067005357624 -0.1877326400822077 L -0.5112556606590726 -0.1877326400822077 Z" fill="#000000" transform="matrix(1,0,0,1,0,0)" fill-rule="nonzero"></path></g></g></g></g><defs><clipPath id="SvgjsClipPath2990"><path d=" M -0.9305603288260227 -1.845060585721353 h 1.8611206576520454 v 1.657560585721353 h -1.8611206576520454 Z"></path></clipPath><clipPath id="SvgjsClipPath2985a6d6e3a1-b6c5-4634-9f90-0df3633f7dfa"><path d=" M -0.9305603288260227 -1.845060585721353 L 0.9305603288260227 -1.845060585721353 L 0.9305603288260227 -0.1875 L -0.9305603288260227 -0.1875 Z"></path></clipPath></defs></svg>